<svg xmlns="http://www.w3.org/2000/svg" width="42" height="42" viewBox="0 0 42 42"><g><g><g/><g><path fill="none" stroke="#b02c44" stroke-linecap="round" stroke-linejoin="round" stroke-miterlimit="20" stroke-width="2.5" d="M21 25.5a1 1 0 0 1 1-1h6.75a1 1 0 0 1 1 1v3.25a1 1 0 0 1-1 1H22a1 1 0 0 1-1-1z"/></g><g><path fill="none" stroke="#b02c44" stroke-linecap="round" stroke-linejoin="round" stroke-miterlimit="20" stroke-width="2.5" d="M12.25 5.38a1 1 0 0 1 1-1h15.5a1 1 0 0 1 1 1v3.25a1 1 0 0 1-1 1h-15.5a1 1 0 0 1-1-1z"/></g><g><path fill="none" stroke="#b02c44" stroke-linecap="round" stroke-linejoin="round" stroke-miterlimit="20" stroke-width="2.5" d="M12.25 7v0h-3.5c-.928 0-1.819.369-2.475 1a3.604 3.604 0 0 0-1.025 2.5v15.75a3.5 3.5 0 0 0 3.5 3.5h24.5a3.5 3.5 0 0 0 3.5-3.5V10.5a3.5 3.5 0 0 0-3.5-3.5h-3.5v0"/></g><g><path fill="none" stroke="#b02c44" stroke-linecap="round" stroke-linejoin="round" stroke-miterlimit="20" stroke-width="2.5" d="M28 36.75l-1.75-7"/></g><g><path fill="none" stroke="#b02c44" stroke-linecap="round" stroke-linejoin="round" stroke-miterlimit="20" stroke-width="2.5" d="M14 36.75l1.75-7"/></g></g></g></svg>