<svg xmlns="http://www.w3.org/2000/svg" width="40" height="36" viewBox="0 0 40 36"><g><g><g><path fill="none" stroke="#b02c44" stroke-linecap="round" stroke-linejoin="round" stroke-miterlimit="20" stroke-width="2.5" d="M32.25 5.75v0H34c1.934 0 3.5 1.566 3.5 3.5v21c0 1.934-1.566 3.5-3.5 3.5H6a3.499 3.499 0 0 1-3.5-3.5v-21c0-1.934 1.566-3.5 3.5-3.5h1.75v0"/></g><g><path fill="none" stroke="#b02c44" stroke-linecap="round" stroke-linejoin="round" stroke-miterlimit="20" stroke-width="2.5" d="M20 7.5c0-2.9-2.35-5.25-5.25-5.25H9.5C8.534 2.25 7.75 3 7.75 4v22.75c0 .966.784 1.75 1.75 1.75h5.25c2.9 0 5.25 2.35 5.25 5.25 0-2.9 2.35-5.25 5.25-5.25h5.25a1.75 1.75 0 0 0 1.75-1.75V4c0-1-.784-1.75-1.75-1.75h-5.25A5.25 5.25 0 0 0 20 7.5z"/></g><g><path fill="none" stroke="#b02c44" stroke-linecap="round" stroke-linejoin="round" stroke-miterlimit="20" stroke-width="2.5" d="M20 7.5v26.25"/></g></g></g></svg>