<svg xmlns="http://www.w3.org/2000/svg" width="36" height="36" viewBox="0 0 36 36"><g><g><g><path fill="none" stroke="#b02c44" stroke-linecap="round" stroke-linejoin="round" stroke-miterlimit="20" stroke-width="2.5" d="M2.25 16.759c0 4.695 2.485 8.828 6.298 11.434-.001 1.496.002 3.512.002 5.628l6.18-3.057c1.056.236 2.148.313 3.27.313 8.666 0 15.75-6.375 15.75-14.318C33.75 8.815 26.666 2.44 18 2.44S2.25 8.815 2.25 16.759z"/></g><g><path fill="none" stroke="#b02c44" stroke-linecap="round" stroke-linejoin="round" stroke-miterlimit="20" stroke-width="2.5" d="M17.823 18.573v0-.362c0-1.211.734-1.83 1.468-2.323.709-.483 1.437-1.113 1.437-2.275 0-1.613-1.3-2.903-2.903-2.903a2.898 2.898 0 0 0-2.905 2.902"/></g><g><path fill="none" stroke="#b02c44" stroke-linecap="round" stroke-linejoin="round" stroke-miterlimit="20" stroke-width="2.5" d="M17.823 22.663a.26.26 0 0 0-.26.262c0 .145.117.263.262.263.175 0 .263-.118.263-.263 0-.145-.088-.262-.265-.262"/></g></g></g></svg>