<svg xmlns="http://www.w3.org/2000/svg" width="32" height="36" viewBox="0 0 32 36"><g><g><path fill="none" stroke="#fff" stroke-linecap="round" stroke-linejoin="round" stroke-miterlimit="20" stroke-width="2.5" d="M9.88 9.25v0-.875C9.88 5 12.622 2.25 16 2.25v0c3.388 0 6.13 2.75 6.13 6.125v.875"/></g><g><path fill="none" stroke="#fff" stroke-linecap="round" stroke-linejoin="round" stroke-miterlimit="20" stroke-width="2.5" d="M12.505 16.25V18"/></g><g><path fill="none" stroke="#fff" stroke-linecap="round" stroke-linejoin="round" stroke-miterlimit="20" stroke-width="2.5" d="M19.505 16.25V18"/></g><g><path fill="none" stroke="#fff" stroke-linecap="round" stroke-linejoin="round" stroke-miterlimit="20" stroke-width="2.5" d="M22.13 24.45a9.318 9.318 0 0 1-12.25 0"/></g><g><path fill="none" stroke="#fff" stroke-linecap="round" stroke-linejoin="round" stroke-miterlimit="20" stroke-width="2.5" d="M6.312 9.25a3.5 3.5 0 0 0-3.493 3.282L2 25.384a7.949 7.949 0 0 0 2.136 5.883 7.875 7.875 0 0 0 5.739 2.483h12.25a7.875 7.875 0 0 0 5.739-2.483A7.952 7.952 0 0 0 30 25.384l-.82-12.852a3.5 3.5 0 0 0-3.492-3.282z"/></g></g></svg>