<svg xmlns="http://www.w3.org/2000/svg" width="32" height="36" viewBox="0 0 32 36"><g><g><path fill="none" stroke="#b02c44" stroke-linecap="round" stroke-linejoin="round" stroke-miterlimit="20" stroke-width="2.5" d="M16 11c7.732 0 14-2 14-4.375 0-2.416-6.268-4.375-14-4.375S2 4.209 2 6.625C2 9 8.268 11 16 11z"/></g><g><path fill="none" stroke="#b02c44" stroke-linecap="round" stroke-linejoin="round" stroke-miterlimit="20" stroke-width="2.5" d="M30 6.85v0s-2.088 14.965-3 21.808c-.326 2.181-2 3.946-4.104 4.412-4.551.93-9.237.93-13.788 0C7 32.604 5.33 30.839 5 28.658 4.092 21.815 2 6.85 2 6.85v0"/></g><g><path fill="none" stroke="#b02c44" stroke-linecap="round" stroke-linejoin="round" stroke-miterlimit="20" stroke-width="2.5" d="M19.067 19.75v0l-3.5 3.5v0l-2.187-2.188v0"/></g></g></svg>